<?xml version="1.0" encoding="utf-8"?>
<!-- Generator: Adobe Illustrator 27.2.0, SVG Export Plug-In . SVG Version: 6.00 Build 0)  -->
<svg version="1.1" xmlns="http://www.w3.org/2000/svg" xmlns:xlink="http://www.w3.org/1999/xlink" x="0px" y="0px"
	 viewBox="0 0 138.4 136.2" style="enable-background:new 0 0 138.4 136.2;" xml:space="preserve">
<style type="text/css">
	.st0{fill:#FFFFFF;}
</style>
<g id="Layer_1">
	<g>
		<g>
			<g>
				<path class="st0" d="M78.4,107.8V107c0-15.5-4.6-23.6-9.2-23.6c0,0,0,0,0,0c-4.6,0-9.2,8.1-9.2,23.6l0,0.8l-6.7-1.7l0.1-0.6
					c3.4-25.8,15-25.9,15.9-25.9c0.8,0,12.5,0.1,15.9,25.9l0.1,0.6L78.4,107.8z"/>
			</g>
			<g>
				<path class="st0" d="M109.6,71.8l-0.8-0.2c-14.7-4.8-23.9-2.9-25.3,1.5c0,0,0,0,0,0c-1.4,4.3,4.9,11.2,19.6,16l0.8,0.3l-3.7,5.9
					l-0.5-0.2C76.2,83.8,79.7,72.6,80,71.9c0.2-0.8,3.9-11.9,29.5-7.1l0.5,0.1L109.6,71.8z"/>
			</g>
			<g>
				<path class="st0" d="M85,31l-0.5,0.7c-9.1,12.5-10.1,21.8-6.4,24.5c0,0,0,0,0,0c3.7,2.7,12.2-1.2,21.3-13.7l0.5-0.7l4.4,5.3
					l-0.4,0.4C86,66.5,76.5,59.7,75.9,59.2c-0.7-0.5-10.1-7.4,2.4-30.3l0.3-0.5L85,31z"/>
			</g>
			<g>
				<path class="st0" d="M38.6,41.8l0.5,0.7C48.2,55,56.7,58.9,60.4,56.2c0,0,0,0,0,0c3.7-2.7,2.7-12-6.4-24.5L53.5,31l6.4-2.6
					l0.3,0.5c12.5,22.9,3.1,29.8,2.4,30.3c-0.7,0.5-10.1,7.3-28-11.6l-0.4-0.4L38.6,41.8z"/>
			</g>
			<g>
				<path class="st0" d="M34.5,89.3l0.8-0.2C50,84.3,56.3,77.4,54.9,73c0,0,0,0,0,0c-1.4-4.3-10.6-6.2-25.3-1.5l-0.8,0.2l-0.5-6.9
					l0.5-0.1C54.5,60,58.2,71,58.5,71.9c0.3,0.8,3.8,11.9-19.7,23.1l-0.5,0.2L34.5,89.3z"/>
			</g>
		</g>
		<path class="st0" d="M69.2,62.7c-1.6,0-2.9,0.5-4,1.6c-1.1,1.1-1.6,2.4-1.6,4c0,1.6,0.5,2.9,1.6,4c1.1,1.1,2.4,1.6,4,1.6
			c1.6,0,2.9-0.5,4-1.6c1.1-1.1,1.6-2.4,1.6-4c0-1.6-0.5-2.9-1.6-4C72.1,63.3,70.8,62.7,69.2,62.7z"/>
	</g>
</g>
<g id="Layer_2">
</g>
</svg>
